<svg width="96" height="96" viewBox="0 0 96 96" fill="none" xmlns="http://www.w3.org/2000/svg">
<rect width="96" height="96" rx="48" fill="#F6F6F6"/>
<path fill-rule="evenodd" clip-rule="evenodd" d="M68.9466 48.0001C68.9466 59.568 59.569 68.9456 48.0011 68.9456C36.4333 68.9456 27.0557 59.568 27.0557 48.0001C27.0557 36.4323 36.4333 27.0547 48.0011 27.0547C59.569 27.0547 68.9466 36.4323 68.9466 48.0001ZM48.0012 40.1456C47.0354 40.1456 46.1883 40.6672 45.7316 41.4566C45.0076 42.7082 43.406 43.1359 42.1543 42.4119C40.9027 41.6879 40.475 40.0863 41.199 38.8346C42.5531 36.4937 45.0906 34.9092 48.0012 34.9092C52.3391 34.9092 55.8557 38.4258 55.8557 42.7638C55.8557 46.1837 53.67 49.0931 50.6193 50.1714V50.6183C50.6193 52.0643 49.4471 53.2365 48.0012 53.2365C46.5552 53.2365 45.383 52.0643 45.383 50.6183V48.0001C45.383 46.5542 46.5552 45.382 48.0012 45.382C49.4471 45.382 50.6193 44.2098 50.6193 42.7638C50.6193 41.3178 49.4471 40.1456 48.0012 40.1456ZM48.0011 61.091C49.4471 61.091 50.6193 59.9188 50.6193 58.4729C50.6193 57.0269 49.4471 55.8547 48.0011 55.8547C46.5551 55.8547 45.3829 57.0269 45.3829 58.4729C45.3829 59.9188 46.5551 61.091 48.0011 61.091Z" fill="#A6A9AC"/>
</svg>
