<svg width="96" height="96" viewBox="0 0 96 96" fill="none" xmlns="http://www.w3.org/2000/svg">
<rect width="96" height="96" rx="48" fill="#FFFBF5"/>
<path fill-rule="evenodd" clip-rule="evenodd" d="M43.4368 29.9319C45.4387 26.373 50.5627 26.373 52.5646 29.9319L67.1749 55.9056C69.1383 59.3962 66.6159 63.7092 62.611 63.7092H33.3905C29.3856 63.7092 26.8631 59.3962 28.8266 55.9057L43.4368 29.9319ZM50.6187 55.855C50.6187 57.3009 49.4465 58.4731 48.0005 58.4731C46.5545 58.4731 45.3823 57.3009 45.3823 55.855C45.3823 54.409 46.5545 53.2368 48.0005 53.2368C49.4465 53.2368 50.6187 54.409 50.6187 55.855ZM48.0005 34.9095C46.5545 34.9095 45.3823 36.0817 45.3823 37.5277V45.3822C45.3823 46.8282 46.5545 48.0004 48.0005 48.0004C49.4465 48.0004 50.6187 46.8282 50.6187 45.3822V37.5277C50.6187 36.0817 49.4465 34.9095 48.0005 34.9095Z" fill="#F5AC1C"/>
</svg>
